<?xml version="1.0" encoding="utf-8"?>
<!-- Generator: Adobe Illustrator 21.0.0, SVG Export Plug-In . SVG Version: 6.00 Build 0)  -->
<svg version="1.1"
	 id="svg41820" xmlns:cc="http://creativecommons.org/ns#" xmlns:dc="http://purl.org/dc/elements/1.1/" xmlns:rdf="http://www.w3.org/1999/02/22-rdf-syntax-ns#" xmlns:svg="http://www.w3.org/2000/svg"
	 xmlns="http://www.w3.org/2000/svg" xmlns:xlink="http://www.w3.org/1999/xlink" x="0px" y="0px" viewBox="0 0 675 137"
	 style="enable-background:new 0 0 675 137;" xml:space="preserve">
<style type="text/css">
	.st0{fill:#FFFFFF;}
</style>
<g id="logo-center" transform="translate(181.83646145 0)">
	<g>
		<g id="XMLID_1_">
			<g>
				<path class="st0" d="M493,28.1v38.5c0,0.4-0.1,0.7-0.4,1.1c-0.3,0.3-0.7,0.5-1.1,0.5h-6.8c-0.9,0-1.6-0.4-2-1.1
					c-2.4-3.7-4.5-7-6.5-9.9c-1.2-1.8-2.1-3.1-2.7-4.2c-0.7-1.1-1.3-2.1-1.9-2.9c-0.6-0.9-1.1-1.7-1.5-2.3c-0.4-0.6-0.6-1-0.7-1.1
					c-0.1-0.1-0.2-0.2-0.3-0.2c-0.2,0-0.3,0.1-0.3,0.3v19.9c0,0.4-0.2,0.8-0.5,1.1c-0.3,0.3-0.7,0.4-1.1,0.4h-7.6
					c-0.4,0-0.7-0.2-1-0.5c-0.3-0.2-0.4-0.6-0.4-0.9v-35c0-1.4,0.5-2.6,1.5-3.6s2.2-1.6,3.7-1.6h2c0.4,0,1,0.1,1.6,0.3
					c0.6,0.2,1.2,0.7,1.9,1.6c2.4,3.7,4.5,7,6.3,9.9c1.2,1.8,2.1,3.2,2.7,4.3c0.7,1,1.3,2,1.9,2.9c0.6,0.9,1.1,1.6,1.5,2.3
					c0.4,0.6,0.6,1,0.7,1.1c0,0.1,0.1,0.1,0.2,0.1c0.2,0,0.3-0.1,0.3-0.3v-17c0-1.6,0.5-2.8,1.6-3.8s2.3-1.4,3.6-1.4h3.8
					c0.4,0,0.8,0.1,1.1,0.4C492.9,27.4,493,27.7,493,28.1z"/>
				<path class="st0" d="M447.3,61.1V67c0,0.5-0.2,0.9-0.5,1.1c-0.3,0.2-0.6,0.4-1.1,0.4h-28.6c-0.4,0-0.8-0.1-1.1-0.4
					c-0.3-0.5-0.4-0.9-0.4-1.3v-35c0-1.5,0.5-2.7,1.6-3.7c1-1,2.3-1.5,3.6-1.5h24.4c0.4,0,0.8,0.2,1.1,0.5c0.3,0.3,0.5,0.6,0.5,1.1
					v5.9c0,0.4-0.1,0.8-0.4,1c-0.3,0.3-0.7,0.4-1.1,0.4h-22.1c1,0,1.7,0.3,2.3,1s1,1.4,1,2.2v2.5c0,0.4,0.1,0.9,0.4,1.3
					c0.3,0.4,0.8,0.6,1.4,0.6h13c0.4,0,0.8,0.2,1.1,0.5c0.3,0.3,0.5,0.6,0.5,1.1v5.4c0,0.4-0.2,0.8-0.5,1.1
					c-0.3,0.3-0.6,0.4-1.1,0.4h-18.1c0.9,0,1.7,0.3,2.3,1c0.6,0.6,1,1.4,1,2.2v2.8c0,0.4,0.2,0.9,0.5,1.3c0.3,0.4,0.8,0.6,1.3,0.6
					h17.4C446.7,59.5,447.3,60,447.3,61.1z"/>
				<path class="st0" d="M404.1,50.2c1,1.5,1.4,3.3,1.4,5.6c0,2.4-0.6,4.5-1.7,6.2c-1.1,1.7-2.5,3-4.3,4.1c-1.8,1-3.7,1.8-5.9,2.3
					c-2.2,0.4-4.2,0.7-6.3,0.7c-2,0-4-0.2-6.1-0.6s-4-1.1-5.7-2c-1.8-1-3.2-2.2-4.4-3.7c-1.2-1.6-1.8-3.5-1.9-5.7
					c0-0.4,0.1-0.7,0.4-0.9s0.6-0.4,1-0.4h7.9c0.2,0,0.4,0,0.6,0.1c0.2,0,0.4,0.1,0.5,0.2c0.3,0.2,0.6,0.4,1,0.8
					c0.6,1.3,1.6,2.2,2.8,2.6c1.3,0.4,2.6,0.7,3.9,0.7c0.6,0,1.3,0,2-0.1c0.8-0.1,1.5-0.2,2.2-0.5c0.7-0.3,1.3-0.7,1.7-1.1
					c0.5-0.5,0.7-1.2,0.7-2c0-1.1-0.4-1.9-1.2-2.3c-0.8-0.4-1.6-0.9-2.5-1.1c-0.7-0.2-1.5-0.5-2.5-0.7c-0.9-0.2-2-0.5-3.2-0.7
					c-1.8-0.4-3.6-0.8-5.3-1.4c-1.7-0.6-3.2-1.4-4.6-2.3c-1.3-1-2.4-2.2-3.2-3.6c-0.8-1.5-1.2-3.3-1.2-5.4c0-2.6,0.7-4.9,2.2-6.8
					c1.5-1.9,3.4-3.4,5.7-4.4c2.5-1,5.5-1.6,8.8-1.6c1.3,0,2.7,0.1,4.1,0.4c1.4,0.2,2.8,0.6,4.1,1.1c1.4,0.5,2.6,1.1,3.8,2
					c1.2,0.8,2.2,1.8,3,2.9c1.4,1.8,2.1,3.5,2.2,5.3c0,0.3-0.1,0.6-0.4,0.9c-0.2,0.3-0.5,0.4-0.8,0.4h-8.4c-0.8,0-1.5-0.4-2-1.1
					c-0.2-0.8-0.9-1.6-1.9-2.2c-1.1-0.6-2.3-0.8-3.7-0.8c-0.6,0-1.2,0-1.9,0.1c-0.6,0.1-1.2,0.3-1.7,0.5c-0.5,0.3-0.9,0.7-1.3,1.1
					c-0.3,0.4-0.5,1-0.5,1.7c0,1.1,0.6,2,1.8,2.7c1.2,0.6,3.4,1.3,6.7,2c1.9,0.4,3.7,0.8,5.6,1.3s3.5,1.2,5,2.1
					C402,47.5,403.2,48.7,404.1,50.2z"/>
				<path class="st0" d="M360.2,50.2c0.9,1.5,1.4,3.3,1.4,5.6c0,2.4-0.6,4.5-1.7,6.2c-1.1,1.7-2.5,3-4.3,4.1c-1.8,1-3.7,1.8-5.9,2.3
					c-2.2,0.4-4.2,0.7-6.3,0.7c-2,0-4-0.2-6.1-0.6c-2.1-0.4-4-1.1-5.7-2c-1.8-1-3.2-2.2-4.4-3.7c-1.2-1.6-1.8-3.5-1.9-5.7
					c0-0.4,0.1-0.7,0.4-0.9c0.3-0.2,0.6-0.4,1-0.4h7.9c0.2,0,0.4,0,0.6,0.1c0.2,0,0.4,0.1,0.5,0.2c0.3,0.2,0.6,0.4,1,0.8
					c0.6,1.3,1.6,2.2,2.8,2.6c1.3,0.4,2.6,0.7,3.9,0.7c0.6,0,1.3,0,2-0.1c0.8-0.1,1.5-0.2,2.2-0.5c0.7-0.3,1.3-0.7,1.7-1.1
					c0.5-0.5,0.7-1.2,0.7-2c0-1.1-0.4-1.9-1.2-2.3c-0.8-0.5-1.6-0.9-2.5-1.1c-0.7-0.2-1.5-0.5-2.5-0.7c-0.9-0.2-2-0.5-3.2-0.7
					c-1.8-0.4-3.6-0.8-5.3-1.4c-1.7-0.6-3.2-1.4-4.6-2.3c-1.3-1-2.4-2.2-3.2-3.6c-0.8-1.5-1.2-3.3-1.2-5.4c0-2.6,0.7-4.9,2.2-6.8
					c1.5-1.9,3.4-3.4,5.7-4.4c2.5-1,5.5-1.6,8.8-1.6c1.3,0,2.7,0.1,4.1,0.4c1.4,0.2,2.8,0.6,4.1,1.1c1.4,0.5,2.6,1.1,3.8,2
					c1.2,0.8,2.2,1.8,3,2.9c1.4,1.8,2.1,3.5,2.2,5.3c0,0.3-0.1,0.6-0.4,0.9c-0.2,0.3-0.5,0.4-0.8,0.4h-8.4c-0.8,0-1.5-0.4-2-1.1
					c-0.2-0.8-0.9-1.6-1.9-2.2c-1.1-0.6-2.3-0.8-3.7-0.8c-0.6,0-1.2,0-1.9,0.1c-0.6,0.1-1.2,0.3-1.7,0.5c-0.5,0.3-0.9,0.7-1.3,1.1
					c-0.3,0.4-0.5,1-0.5,1.7c0,1.1,0.6,2,1.8,2.7c1.2,0.6,3.4,1.3,6.7,2c1.9,0.4,3.7,0.8,5.6,1.3s3.5,1.2,5,2.1
					C358.1,47.5,359.3,48.7,360.2,50.2z"/>
				<path class="st0" d="M315.4,28.1v38.7c0,0.4-0.1,0.7-0.4,1c-0.2,0.3-0.6,0.5-1.1,0.5h-8.5c-0.4,0-0.8-0.1-1.1-0.4
					c-0.3-0.3-0.4-0.7-0.4-1.1v-35c0-1.5,0.5-2.7,1.6-3.7c1-1,2.3-1.5,3.6-1.5h4.8c0.5,0,0.8,0.1,1.1,0.4
					C315.3,27.3,315.4,27.6,315.4,28.1z"/>
				<path class="st0" d="M291.5,28.1v38.5c0,0.4-0.1,0.7-0.4,1.1c-0.3,0.3-0.7,0.5-1.1,0.5h-6.8c-0.9,0-1.6-0.4-2-1.1
					c-2.4-3.7-4.5-7-6.5-9.9c-1.2-1.8-2.1-3.1-2.7-4.2c-0.7-1.1-1.3-2.1-1.9-2.9c-0.6-0.9-1.1-1.7-1.5-2.3c-0.4-0.6-0.6-1-0.7-1.1
					c-0.1-0.1-0.2-0.2-0.3-0.2c-0.2,0-0.3,0.1-0.3,0.3v19.9c0,0.4-0.2,0.8-0.5,1.1c-0.3,0.3-0.7,0.4-1.1,0.4h-7.6
					c-0.4,0-0.7-0.2-1-0.5c-0.2-0.2-0.4-0.6-0.4-0.9v-35c0-1.4,0.5-2.6,1.5-3.6s2.2-1.6,3.7-1.6h2c0.4,0,1,0.1,1.6,0.3
					c0.6,0.2,1.2,0.7,1.9,1.6c2.4,3.7,4.5,7,6.3,9.9c1.2,1.8,2.1,3.2,2.7,4.3c0.7,1,1.3,2,1.9,2.9c0.6,0.9,1.1,1.6,1.5,2.3
					c0.4,0.6,0.6,1,0.7,1.1c0,0.1,0.1,0.1,0.2,0.1c0.2,0,0.3-0.1,0.3-0.3v-17c0-1.6,0.5-2.8,1.6-3.8s2.3-1.4,3.6-1.4h3.8
					c0.4,0,0.8,0.1,1.1,0.4C291.4,27.4,291.5,27.7,291.5,28.1z"/>
				<path class="st0" d="M247.6,66.4c0.2,0.1,0.2,0.4,0.2,0.7c0,0.3-0.1,0.6-0.4,0.8c-0.3,0.2-0.6,0.4-1,0.4h-9.3
					c-1,0-1.8-0.4-2.4-1.1c-1.9-2.4-3.6-4.6-5.1-6.6c-0.9-1.2-1.7-2.1-2.2-2.8c-0.6-0.7-1.1-1.4-1.6-2c-0.5-0.6-0.9-1.2-1.3-1.6
					c-0.3-0.4-0.5-0.7-0.6-0.8c-0.2-0.1-0.3-0.1-0.3-0.1c-0.2,0-0.3,0.1-0.3,0.4V67c0,0.4-0.1,0.8-0.4,1.1c-0.3,0.2-0.6,0.4-1.1,0.4
					h-7.9c-0.4,0-0.8-0.1-1.1-0.4c-0.3-0.3-0.4-0.6-0.4-1.1V32c0-1.3,0.5-2.5,1.4-3.5c1-1.1,2.2-1.6,3.7-1.6h4.3
					c0.4,0,0.8,0.1,1.1,0.4c0.3,0.3,0.4,0.6,0.4,1.1v12.1c0,0.2,0.1,0.3,0.3,0.3c0.1,0,0.2,0,0.3-0.1l9.9-12.6
					c0.5-0.8,1.3-1.1,2.3-1.1h9.1c0.3,0,0.6,0.1,0.9,0.4c0.2,0.2,0.4,0.5,0.4,0.8c0,0.4-0.1,0.6-0.2,0.7c-2,2.7-3.9,5.1-5.5,7.2
					c-1,1.3-1.8,2.3-2.3,3c-0.6,0.8-1.1,1.5-1.6,2.1c-0.5,0.6-0.9,1.2-1.3,1.6c-0.3,0.4-0.5,0.6-0.5,0.7c-0.1,0.1-0.3,0.4-0.6,0.8
					c-0.3,0.4-0.7,0.7-1.3,1.1c-0.5,0.4-1.1,0.8-1.9,1.1c-0.4-0.1-1.2,0-2,0c0.7,0,1.4,0.1,2,0.4c0.6,0.3,1.2,0.6,1.7,1
					c0.5,0.4,1,0.7,1.3,1.1c0.4,0.4,0.6,0.6,0.8,0.8L247.6,66.4z"/>
				<path class="st0" d="M200.3,28.1v38.7c0,0.4-0.1,0.7-0.4,1c-0.2,0.3-0.6,0.5-1.1,0.5h-8.5c-0.4,0-0.8-0.1-1.1-0.4
					c-0.2-0.3-0.4-0.7-0.4-1.1v-35c0-1.5,0.5-2.7,1.6-3.7c1-1,2.3-1.5,3.6-1.5h4.8c0.5,0,0.8,0.1,1.1,0.4
					C200.2,27.3,200.3,27.6,200.3,28.1z"/>
				<polygon class="st0" points="181.2,100.1 188.7,107.6 186.1,107.6 179.9,101.3 179.9,107.6 178,107.6 178,89.3 179.9,89.3 
					179.9,99.3 185.3,94.4 187.7,94.4 				"/>
				<path class="st0" d="M176.5,28.1v38.5c0,0.4-0.1,0.7-0.4,1.1c-0.3,0.3-0.7,0.5-1.1,0.5h-6.8c-0.9,0-1.6-0.4-2-1.1
					c-2.4-3.7-4.5-7-6.5-9.9c-1.2-1.8-2.1-3.1-2.7-4.2c-0.7-1.1-1.3-2.1-1.9-2.9c-0.6-0.9-1.1-1.7-1.5-2.3c-0.4-0.6-0.6-1-0.7-1.1
					c-0.1-0.1-0.2-0.2-0.3-0.2c-0.2,0-0.3,0.1-0.3,0.3v19.9c0,0.4-0.2,0.8-0.5,1.1c-0.3,0.3-0.7,0.4-1.1,0.4h-7.6
					c-0.4,0-0.7-0.2-1-0.5c-0.3-0.2-0.4-0.6-0.4-0.9v-35c0-1.4,0.5-2.6,1.5-3.6s2.2-1.6,3.7-1.6h2c0.4,0,1,0.1,1.6,0.3
					c0.6,0.2,1.2,0.7,1.9,1.6c2.4,3.7,4.5,7,6.3,9.9c1.2,1.8,2.1,3.2,2.7,4.3c0.7,1,1.3,2,1.9,2.9c0.6,0.9,1.1,1.6,1.5,2.3
					c0.4,0.6,0.6,1,0.7,1.1c0,0.1,0.1,0.1,0.2,0.1c0.2,0,0.3-0.1,0.3-0.3v-17c0-1.6,0.5-2.8,1.6-3.8c1.1-1,2.3-1.4,3.6-1.4h3.8
					c0.4,0,0.8,0.1,1.1,0.4C176.4,27.4,176.5,27.7,176.5,28.1z"/>
				<rect x="167.5" y="89.9" class="st0" width="2.1" height="2.1"/>
				<rect x="167.6" y="94.3" class="st0" width="1.9" height="13.3"/>
				<path class="st0" d="M159.1,98.9v8.6h-1.9V99c0-2.1-1.2-3.1-3.6-3.1c-1.1,0-2.3,0.2-3.5,0.5v11.2h-1.9l0.1-12.2
					c1.7-0.9,3.6-1.3,5.6-1.3c1.9,0,3.2,0.4,4,1.2C158.7,96.1,159.1,97.3,159.1,98.9z"/>
				<polygon class="st0" points="133.7,100.1 141.2,107.6 138.6,107.6 132.4,101.3 132.4,107.6 130.5,107.6 130.5,89.3 132.4,89.3 
					132.4,99.3 137.8,94.4 140.2,94.4 				"/>
				<path class="st0" d="M132.6,66.4c0.2,0.1,0.2,0.4,0.2,0.7c0,0.3-0.1,0.6-0.4,0.8c-0.3,0.2-0.6,0.4-1,0.4h-9.3
					c-1,0-1.8-0.4-2.4-1.1c-1.9-2.4-3.6-4.6-5.1-6.6c-0.9-1.2-1.7-2.1-2.2-2.8c-0.6-0.7-1.1-1.4-1.6-2c-0.5-0.6-0.9-1.2-1.3-1.6
					c-0.3-0.4-0.5-0.7-0.6-0.8c-0.2-0.1-0.3-0.1-0.3-0.1c-0.2,0-0.3,0.1-0.3,0.4V67c0,0.4-0.1,0.8-0.4,1.1c-0.3,0.2-0.6,0.4-1.1,0.4
					H99c-0.4,0-0.8-0.1-1.1-0.4c-0.3-0.3-0.4-0.6-0.4-1.1V32c0-1.3,0.5-2.5,1.4-3.5c1-1.1,2.2-1.6,3.7-1.6h4.3
					c0.4,0,0.8,0.1,1.1,0.4c0.3,0.3,0.4,0.6,0.4,1.1v12.1c0,0.2,0.1,0.3,0.3,0.3c0.1,0,0.2,0,0.3-0.1l9.9-12.6
					c0.5-0.8,1.3-1.1,2.3-1.1h9.1c0.3,0,0.6,0.1,0.9,0.4c0.2,0.2,0.4,0.5,0.4,0.8c0,0.4-0.1,0.6-0.2,0.7c-2,2.7-3.9,5.1-5.5,7.2
					c-1,1.3-1.8,2.3-2.3,3c-0.6,0.8-1.1,1.5-1.6,2.1c-0.5,0.6-0.9,1.2-1.3,1.6c-0.3,0.4-0.5,0.6-0.5,0.7c-0.1,0.1-0.3,0.4-0.6,0.8
					c-0.3,0.4-0.7,0.7-1.3,1.1c-0.5,0.4-1.1,0.8-1.9,1.1c-0.6-0.1-1.3,0-2.1,0c0.7,0,1.4,0.1,2,0.4c0.6,0.3,1.2,0.6,1.7,1
					c0.5,0.4,1,0.7,1.3,1.1c0.4,0.4,0.6,0.6,0.8,0.8L132.6,66.4z"/>
				<path class="st0" d="M119.7,96.8c-0.6-0.6-1.5-0.9-2.7-0.9c-1.2,0-2.1,0.3-2.7,0.8s-1,1.5-1.1,2.9h7.6
					C120.7,98.4,120.4,97.4,119.7,96.8z M117,94.1c2,0,3.5,0.7,4.4,2c0.9,1.3,1.4,3.1,1.4,5.2h-9.7c0,1.6,0.4,2.8,1.1,3.7
					c0.7,0.8,1.8,1.3,3.2,1.3c1.8,0,3.3-0.4,4.5-1.1v2c-1.3,0.6-2.8,0.9-4.6,0.9c-1.9,0-3.4-0.6-4.5-1.8c-1.1-1.2-1.6-3-1.6-5.3
					c0-2.2,0.5-3.9,1.5-5.1C113.7,94.7,115.1,94.1,117,94.1z"/>
				<path class="st0" d="M98.9,96.1h-2.3v-1.8h2.3v-3.7h1.9v3.7h3.4v1.8h-3.4v7.7c0,0.8,0.1,1.3,0.4,1.7c0.2,0.4,0.7,0.5,1.4,0.5
					c0.7,0,1.2-0.1,1.7-0.3v1.8c-0.2,0.1-0.6,0.2-1,0.2c-0.4,0.1-0.8,0.1-1.1,0.1c-1,0-1.8-0.3-2.4-0.9s-0.9-1.5-0.9-2.5V96.1z"/>
				<path class="st0" d="M86.7,61.1V67c0,0.5-0.2,0.9-0.5,1.1c-0.3,0.2-0.6,0.4-1.1,0.4H56.5c-0.4,0-0.8-0.1-1.1-0.4
					c-0.2-0.5-0.3-0.9-0.3-1.3v-35c0-1.5,0.5-2.7,1.6-3.7c1-1,2.3-1.5,3.6-1.5h24.4c0.4,0,0.8,0.2,1.1,0.5c0.3,0.3,0.5,0.6,0.5,1.1
					v5.9c0,0.4-0.1,0.8-0.4,1c-0.3,0.3-0.7,0.4-1.1,0.4H62.6c1,0,1.7,0.3,2.3,1c0.6,0.7,1,1.4,1,2.2v2.5c0,0.4,0.1,0.9,0.4,1.3
					c0.3,0.4,0.8,0.6,1.4,0.6h13c0.4,0,0.8,0.2,1.1,0.5c0.3,0.3,0.5,0.6,0.5,1.1v5.4c0,0.4-0.2,0.8-0.5,1.1
					c-0.3,0.3-0.6,0.4-1.1,0.4H62.6c0.9,0,1.7,0.3,2.3,1c0.6,0.6,1,1.4,1,2.2v2.8c0,0.4,0.2,0.9,0.5,1.3c0.3,0.4,0.8,0.6,1.3,0.6
					h17.4C86.1,59.5,86.7,60,86.7,61.1z"/>
				<path class="st0" d="M80.2,105.3v-7.6c0-0.7-0.3-1.2-0.8-1.4c-0.5-0.3-1.3-0.4-2.2-0.4c-1.8,0-3,0.5-3.6,1.5
					c-0.8,0.9-1.1,2.2-1.1,3.9c0,1.5,0.3,2.7,1,3.6c0.7,0.9,1.7,1.3,3.1,1.3c0.6,0,1.2-0.1,1.8-0.2C79,105.8,79.6,105.6,80.2,105.3z
					 M76.4,107.9c-2,0-3.5-0.6-4.5-1.8c-1-1.2-1.5-2.8-1.5-4.9c0-2.7,0.6-4.6,1.9-5.6c1.3-1,2.8-1.5,4.6-1.5c1.4,0,2.6,0.3,3.6,0.8
					s1.5,1.4,1.5,2.5v10.7c0,1.3-0.4,2.4-1.3,3.3c-0.8,0.9-2.3,1.4-4.5,1.4c-0.6,0-1.2-0.1-1.7-0.2s-1-0.2-1.4-0.3
					c-0.4-0.1-0.6-0.1-0.7-0.2v-1.8c0.7,0.2,1.3,0.3,1.8,0.5c0.5,0.1,1.1,0.2,1.8,0.2c1.6,0,2.7-0.3,3.2-0.8s0.8-1.2,0.8-2v-1
					c-0.5,0.2-1.2,0.4-1.9,0.5C77.4,107.9,76.9,107.9,76.4,107.9z"/>
				<rect x="60.6" y="89.9" class="st0" width="2.1" height="2.1"/>
				<rect x="60.7" y="94.3" class="st0" width="1.9" height="13.3"/>
				<rect x="50.3" y="89.3" class="st0" width="1.9" height="18.3"/>
				<path class="st0" d="M45.6,28.1v6.7c0,0.4-0.2,0.8-0.5,1.1c-0.3,0.3-0.6,0.4-1.1,0.4H30.2c0.9,0,1.7,0.3,2.3,1
					c0.7,0.6,1.1,1.4,1.1,2.2v27.4c0,0.4-0.2,0.8-0.5,1c-0.3,0.3-0.6,0.4-1.1,0.4h-8.3c-0.4,0-0.8-0.1-1.1-0.4
					c-0.3-0.2-0.5-0.6-0.5-1V38.1c0-0.6-0.2-1-0.5-1.3c-0.4-0.3-0.8-0.5-1.3-0.5h-8.7c-0.4,0-0.8-0.1-1.1-0.4
					c-0.3-0.3-0.5-0.6-0.5-1.1v-3c0-0.8,0.1-1.5,0.4-2.1c0.3-0.6,0.7-1.2,1.2-1.6c0.5-0.5,1.1-0.8,1.7-1.1c0.6-0.2,1.3-0.4,1.9-0.4
					H44c0.4,0,0.8,0.2,1.1,0.5C45.4,27.4,45.6,27.7,45.6,28.1z"/>
				<rect x="39.9" y="89.3" class="st0" width="1.9" height="18.3"/>
				<rect x="29.4" y="89.9" class="st0" width="2.1" height="2.1"/>
				<rect x="29.5" y="94.3" class="st0" width="1.9" height="13.3"/>
				<path class="st0" d="M21.6,100.8c0,2.7-0.6,4.6-1.9,5.6c-1.2,1-2.7,1.6-4.4,1.6c-3.5,0-5.3-0.9-5.3-2.7V88.7h1.9v6.2
					c0.5-0.2,1.2-0.4,1.8-0.5c0.9-0.2,1.5-0.3,1.9-0.3c2,0,3.5,0.6,4.5,1.8C21.1,97.1,21.6,98.7,21.6,100.8z M18.7,104.7
					c0.6-1,1-2.3,1-4c0-1.5-0.3-2.7-1-3.6c-0.7-0.9-1.7-1.3-3.1-1.3c-0.6,0-1.2,0.1-1.8,0.2c-0.6,0.2-1.2,0.4-1.7,0.7v8.1
					c0,0.5,0.3,0.9,0.9,1.1c0.6,0.2,1.4,0.3,2.2,0.3C16.9,106.2,18.1,105.7,18.7,104.7z"/>
				<path class="st0" d="M-38.5,106c0,8.7,0,17.5,0,26.2c0,3.9-1.2,5.2-5.1,5.2c-41.5,0-83,0-124.4,0c-3.9,0-5.1-1.2-5.2-5.1
					c0-9,0-18,0-27c0-3.9,1.2-5.1,5.2-5.1c9.1,0,18.2-0.1,27.4,0.1c2.9,0,4.9-1.1,6.7-4.2c-9,0-17.5,0-26,0c-4.7,0-5.8-1-5.8-5.6
					c0-27.4,0-54.7,0-82.1c0-4.7,1-5.7,5.7-5.7c36.1,0,72.2,0,108.3,0c4.7,0,5.7,1,5.7,5.7c0,27.4,0,54.7,0,82.1
					c0,4.6-1.1,5.7-5.7,5.7c-9.7,0-19.5,0-29.6,0c1.4,2.9,3.1,4.1,6.1,4.1c10.2-0.1,20.5-0.1,30.7-0.1
					C-39.5,100.2-38.5,101.2-38.5,106z M-45.9,129.8c0-7.5,0-14.7,0-22.2c-40.2,0-80,0-119.9,0c0,7.6,0,14.9,0,22.2
					C-125.7,129.8-85.8,129.8-45.9,129.8z M-53.4,88.5c0-26.2,0-52.2,0-78.4c-35.2,0-70,0-104.9,0c0,26.3,0,52.4,0,78.4
					C-123.2,88.5-88.3,88.5-53.4,88.5z M-126.4,100c12.6,0,24.8,0,37.4,0c-1.7-3-3.7-4-6.7-3.9c-8.1,0.2-16.2,0.2-24.4,0
					C-123.1,96-124.9,97.3-126.4,100z"/>
				<path class="st0" d="M-54.5,111.4c2.6,0,4.7,0.9,4.6,3.6c0,2.8-2.1,3.6-4.7,3.6c-11.7,0-23.4,0-35.1,0c-2.6,0-4.7-0.9-4.6-3.7
					c0-2.8,2.1-3.6,4.7-3.6c5.9,0.1,11.9,0.1,17.9,0.1C-66,111.4-60.2,111.4-54.5,111.4z"/>
				<path class="st0" d="M-57.2,19.8c0,19.7,0,39.5,0,59.2c0,4.9-1,5.9-5.9,5.9c-14.3,0-28.5,0-42.7,0s-28.5,0-42.7,0
					c-4.9,0-5.9-1-5.9-5.9c0-19.7,0-39.5,0-59.2c0-5,0.9-5.9,5.9-5.9c28.5,0,56.9,0,85.4,0C-58.2,13.9-57.2,14.9-57.2,19.8z
					 M-64.6,77.4c0-18.9,0-37.3,0-56c-27.7,0-55,0-82.4,0c0,18.8,0,37.3,0,56C-119.4,77.4-92,77.4-64.6,77.4z"/>
				<path class="st0" d="M-132.3,115.4c0.5,0.9,0.1,2.2,0,3.4c0,1.4,0.5,3-0.1,4c-0.7,1.3-2.5,3.2-3.4,3c-1.4-0.3-3.1-2-3.5-3.4
					c-0.6-2.2-0.6-4.8,0-7c0.4-1.5,2.3-2.7,3.5-4C-134.6,112.7-133.2,113.9-132.3,115.4z"/>
				<path class="st0" d="M-143.5,115.4c0.4,0.9,0,2.3,0,3.4c0,1.4,0.5,3-0.1,4c-0.7,1.3-2.3,3-3.5,3c-1.2,0-3.1-1.8-3.4-3.1
					c-0.6-2.3-0.6-5,0-7.4c0.4-1.5,2.3-2.7,3.5-4C-145.8,112.6-144.4,113.8-143.5,115.4z"/>
				<path class="st0" d="M-154.7,115.2c0.4,0.8,0,2.2,0,3.3c0,1.2,0.4,2.7-0.1,3.7c-0.9,1.5-2.4,2.6-3.6,3.9c-1.2-1.2-3-2.3-3.3-3.8
					c-0.6-2.2-0.6-4.8,0-7c0.4-1.5,2.3-2.6,3.6-3.9C-156.9,112.6-155.5,113.7-154.7,115.2z"/>
			</g>
			<g>
			</g>
		</g>
	</g>
</g>
</svg>
