<?xml version="1.0" encoding="utf-8"?>
<!-- Generator: Adobe Illustrator 21.0.0, SVG Export Plug-In . SVG Version: 6.00 Build 0)  -->
<svg version="1.1"
	 id="svg41820" xmlns:cc="http://creativecommons.org/ns#" xmlns:dc="http://purl.org/dc/elements/1.1/" xmlns:rdf="http://www.w3.org/1999/02/22-rdf-syntax-ns#" xmlns:svg="http://www.w3.org/2000/svg"
	 xmlns="http://www.w3.org/2000/svg" xmlns:xlink="http://www.w3.org/1999/xlink" x="0px" y="0px" viewBox="0 0 675 137"
	 style="enable-background:new 0 0 675 137;" xml:space="preserve">
<style type="text/css">
	.st0{fill:#364448;}
	.st1{fill:#404D50;}
	.st2{fill:#495558;}
	.st3{fill:#535E61;}
	.st4{fill:#5D6769;}
	.st5{fill:#676F71;}
	.st6{fill:#707879;}
	.st7{fill:#7A8081;}
	.st8{fill:#848989;}
	.st9{fill:#8E9292;}
	.st10{fill:#979A9A;}
	.st11{fill:#A1A3A2;}
</style>
<g id="logo-group">
	<g id="logo-center" transform="translate(181.83646145 0)">
		<g id="slogan" transform="translate(0 0)">
			<path id="path41828" class="st0" d="M15.6,94.1c2,0,3.5,0.6,4.5,1.8c1,1.2,1.5,2.8,1.5,4.9c0,2.7-0.6,4.6-1.9,5.6
				c-1.2,1-2.7,1.6-4.4,1.6c-3.5,0-5.3-0.9-5.3-2.7V88.7h1.9v6.2c0.5-0.2,1.2-0.4,1.8-0.5C14.6,94.2,15.2,94.1,15.6,94.1z
				 M15.2,106.2c1.7,0,2.9-0.5,3.5-1.5c0.6-1,1-2.3,1-4c0-1.5-0.3-2.7-1-3.6c-0.7-0.9-1.7-1.3-3.1-1.3c-0.6,0-1.2,0.1-1.8,0.2
				c-0.6,0.2-1.2,0.4-1.7,0.7v8.1c0,0.5,0.3,0.9,0.9,1.1C13.6,106.1,14.4,106.2,15.2,106.2L15.2,106.2z"/>
			<path id="path41830" class="st0" d="M29.4,89.9h2.1V92h-2.1V89.9z M29.5,94.3h1.9v13.3h-1.9V94.3z"/>
			<path id="path41832" class="st0" d="M39.9,107.6V89.3h1.9v18.3H39.9z"/>
			<path id="path41834" class="st0" d="M50.3,107.6V89.3h1.9v18.3H50.3z"/>
			<path id="path41836" class="st0" d="M60.6,89.9h2.1V92h-2.1V89.9z M60.7,94.3h1.9v13.3h-1.9V94.3z"/>
			<path id="path41838" class="st0" d="M76.9,94.1c1.4,0,2.6,0.3,3.6,0.8c1,0.5,1.5,1.4,1.5,2.5v10.7c0,1.3-0.4,2.4-1.3,3.3
				c-0.8,0.9-2.3,1.4-4.5,1.4c-0.6,0-1.2-0.1-1.7-0.2c-0.5-0.1-1-0.2-1.4-0.3c-0.4-0.1-0.6-0.1-0.7-0.2v-1.8
				c0.7,0.2,1.3,0.3,1.8,0.5c0.5,0.1,1.1,0.2,1.8,0.2c1.6,0,2.7-0.3,3.2-0.8c0.5-0.5,0.8-1.2,0.8-2v-1c-0.5,0.2-1.2,0.4-1.9,0.5
				c-0.7,0.2-1.2,0.2-1.7,0.2c-2,0-3.5-0.6-4.5-1.8c-1-1.2-1.5-2.8-1.5-4.9c0-2.7,0.6-4.6,1.9-5.6C73.6,94.6,75.1,94.1,76.9,94.1
				L76.9,94.1z M72.5,101.3c0,1.5,0.3,2.7,1,3.6c0.7,0.9,1.7,1.3,3.1,1.3c0.6,0,1.2-0.1,1.8-0.2c0.6-0.2,1.2-0.4,1.8-0.7v-7.6
				c0-0.7-0.3-1.2-0.8-1.4c-0.5-0.3-1.3-0.4-2.2-0.4c-1.8,0-3,0.5-3.6,1.5C72.8,98.3,72.5,99.6,72.5,101.3L72.5,101.3z"/>
			<path id="path41840" class="st0" d="M102.2,107.8c-1,0-1.8-0.3-2.4-0.9c-0.6-0.6-0.9-1.5-0.9-2.5v-8.3h-2.3v-1.8h2.3v-3.7h1.9
				v3.7h3.4v1.8h-3.4v7.7c0,0.8,0.1,1.3,0.4,1.7c0.2,0.4,0.7,0.5,1.4,0.5c0.7,0,1.2-0.1,1.7-0.3v1.8c-0.2,0.1-0.6,0.2-1,0.2
				C102.9,107.8,102.5,107.8,102.2,107.8z"/>
			<path id="path41842" class="st0" d="M117,94.1c2,0,3.5,0.7,4.4,2c0.9,1.3,1.4,3.1,1.4,5.2h-9.7c0,1.6,0.4,2.8,1.1,3.7
				c0.7,0.8,1.8,1.3,3.2,1.3c1.8,0,3.3-0.4,4.5-1.1v2c-1.3,0.6-2.8,0.9-4.6,0.9c-1.9,0-3.4-0.6-4.5-1.8c-1.1-1.2-1.6-3-1.6-5.3
				c0-2.2,0.5-3.9,1.5-5.1C113.7,94.7,115.1,94.1,117,94.1z M117,95.9c-1.2,0-2.1,0.3-2.7,0.8c-0.6,0.5-1,1.5-1.1,2.9h7.6
				c-0.1-1.2-0.4-2.2-1.1-2.8C119.1,96.2,118.2,95.9,117,95.9z"/>
			<path id="path41844" class="st0" d="M138.6,107.6l-6.2-6.3v6.3h-1.9V89.3h1.9v10l5.4-4.9h2.4l-6.5,5.7l7.5,7.5H138.6z"/>
			<path id="path41846" class="st0" d="M148.3,95.4c1.7-0.9,3.6-1.3,5.6-1.3c1.9,0,3.2,0.4,4,1.2c0.8,0.8,1.2,2,1.2,3.6v8.6h-1.9V99
				c0-2.1-1.2-3.1-3.6-3.1c-1.1,0-2.3,0.2-3.5,0.5v11.2h-1.9L148.3,95.4z"/>
			<path id="path41848" class="st0" d="M167.5,89.9h2.1V92h-2.1V89.9z M167.6,94.3h1.9v13.3h-1.9V94.3z"/>
			<path id="path41850" class="st0" d="M186.1,107.6l-6.2-6.3v6.3H178V89.3h1.9v10l5.4-4.9h2.4l-6.5,5.7l7.5,7.5H186.1z"/>
		</g>
		<g id="title" transform="translate(0 0)">
			<path id="path41853" class="st0" d="M44,26.6c0.4,0,0.8,0.2,1.1,0.5c0.3,0.3,0.5,0.6,0.5,1v6.7c0,0.4-0.2,0.8-0.5,1.1
				c-0.3,0.3-0.6,0.4-1.1,0.4H30.2c0.9,0,1.7,0.3,2.3,1c0.7,0.6,1.1,1.4,1.1,2.2v27.4c0,0.4-0.2,0.8-0.5,1c-0.3,0.3-0.6,0.4-1.1,0.4
				h-8.3c-0.4,0-0.8-0.1-1.1-0.4c-0.3-0.2-0.5-0.6-0.5-1V38.1c0-0.6-0.2-1-0.5-1.3c-0.4-0.3-0.8-0.5-1.3-0.5h-8.7
				c-0.4,0-0.8-0.1-1.1-0.4c-0.3-0.3-0.5-0.6-0.5-1.1v-3c0-0.8,0.1-1.5,0.4-2.1c0.3-0.6,0.7-1.2,1.2-1.6c0.5-0.5,1.1-0.8,1.7-1.1
				c0.6-0.2,1.3-0.4,1.9-0.4L44,26.6z"/>
			<path id="path41855" class="st1" d="M55.1,66.8v-35c0-1.5,0.5-2.7,1.6-3.7c1-1,2.3-1.5,3.6-1.5h24.4c0.4,0,0.8,0.2,1.1,0.5
				c0.3,0.3,0.5,0.6,0.5,1.1v5.9c0,0.4-0.1,0.8-0.4,1c-0.3,0.3-0.7,0.4-1.1,0.4H62.6c1,0,1.7,0.3,2.3,1c0.6,0.7,1,1.4,1,2.2v2.5
				c0,0.4,0.1,0.9,0.4,1.3c0.3,0.4,0.8,0.6,1.4,0.6h13c0.4,0,0.8,0.2,1.1,0.5c0.3,0.3,0.5,0.6,0.5,1.1v5.4c0,0.4-0.2,0.8-0.5,1.1
				c-0.3,0.3-0.6,0.4-1.1,0.4H62.6c0.9,0,1.7,0.3,2.3,1c0.6,0.6,1,1.4,1,2.2v2.8c0,0.4,0.2,0.9,0.5,1.3c0.3,0.4,0.8,0.6,1.3,0.6
				h17.4c1,0,1.6,0.5,1.6,1.6v5.9c0,0.5-0.2,0.9-0.5,1.1c-0.3,0.2-0.6,0.4-1.1,0.4H56.5c-0.4,0-0.8-0.1-1.1-0.4
				C55.2,67.6,55.1,67.2,55.1,66.8z"/>
			<path id="path41857" class="st2" d="M114.3,46.5c0.7,0,1.4,0.1,2,0.4c0.6,0.3,1.2,0.6,1.7,1c0.5,0.4,1,0.7,1.3,1.1
				c0.4,0.4,0.6,0.6,0.8,0.8l12.5,16.6c0.2,0.1,0.2,0.4,0.2,0.7c0,0.3-0.1,0.6-0.4,0.8c-0.3,0.2-0.6,0.4-1,0.4h-9.3
				c-1,0-1.8-0.4-2.4-1.1c-1.9-2.4-3.6-4.6-5.1-6.6c-0.9-1.2-1.7-2.1-2.2-2.8c-0.6-0.7-1.1-1.4-1.6-2c-0.5-0.6-0.9-1.2-1.3-1.6
				c-0.3-0.4-0.5-0.7-0.6-0.8c-0.2-0.1-0.3-0.1-0.3-0.1c-0.2,0-0.3,0.1-0.3,0.4v13.3c0,0.4-0.1,0.8-0.4,1.1
				c-0.3,0.2-0.6,0.4-1.1,0.4H99c-0.4,0-0.8-0.1-1.1-0.4c-0.3-0.3-0.4-0.6-0.4-1.1v-35c0-1.3,0.5-2.5,1.4-3.5c1-1.1,2.2-1.6,3.7-1.6
				h4.3c0.4,0,0.8,0.1,1.1,0.4c0.3,0.3,0.4,0.6,0.4,1.1v12.1c0,0.2,0.1,0.3,0.3,0.3c0.1,0,0.2,0,0.3-0.1l9.9-12.6
				c0.5-0.8,1.3-1.1,2.3-1.1h9.1c0.3,0,0.6,0.1,0.9,0.4c0.2,0.2,0.4,0.5,0.4,0.8c0,0.4-0.1,0.6-0.2,0.7c-2,2.7-3.9,5.1-5.5,7.2
				c-1,1.3-1.8,2.3-2.3,3c-0.6,0.8-1.1,1.5-1.6,2.1c-0.5,0.6-0.9,1.2-1.3,1.6c-0.3,0.4-0.5,0.6-0.5,0.7c-0.1,0.1-0.3,0.4-0.6,0.8
				c-0.3,0.4-0.7,0.7-1.3,1.1c-0.5,0.4-1.1,0.8-1.9,1.1C115.8,46.4,115.1,46.5,114.3,46.5z"/>
			<path id="path41859" class="st3" d="M141.7,66.8v-35c0-1.4,0.5-2.6,1.5-3.6c1-1,2.2-1.6,3.7-1.6h2c0.4,0,1,0.1,1.6,0.3
				c0.6,0.2,1.2,0.7,1.9,1.6c2.4,3.7,4.5,7,6.3,9.9c1.2,1.8,2.1,3.2,2.7,4.3c0.7,1,1.3,2,1.9,2.9c0.6,0.9,1.1,1.6,1.5,2.3
				c0.4,0.6,0.6,1,0.7,1.1c0,0.1,0.1,0.1,0.2,0.1c0.2,0,0.3-0.1,0.3-0.3v-17c0-1.6,0.5-2.8,1.6-3.8c1.1-1,2.3-1.4,3.6-1.4h3.8
				c0.4,0,0.8,0.1,1.1,0.4c0.3,0.4,0.4,0.7,0.4,1.1v38.5c0,0.4-0.1,0.7-0.4,1.1c-0.3,0.3-0.7,0.5-1.1,0.5h-6.8c-0.9,0-1.6-0.4-2-1.1
				c-2.4-3.7-4.5-7-6.5-9.9c-1.2-1.8-2.1-3.1-2.7-4.2c-0.7-1.1-1.3-2.1-1.9-2.9c-0.6-0.9-1.1-1.7-1.5-2.3c-0.4-0.6-0.6-1-0.7-1.1
				c-0.1-0.1-0.2-0.2-0.3-0.2c-0.2,0-0.3,0.1-0.3,0.3v19.9c0,0.4-0.2,0.8-0.5,1.1c-0.3,0.3-0.7,0.4-1.1,0.4h-7.6
				c-0.4,0-0.7-0.2-1-0.5C141.8,67.5,141.7,67.1,141.7,66.8z"/>
			<path id="path41861" class="st4" d="M188.8,66.8v-35c0-1.5,0.5-2.7,1.6-3.7c1-1,2.3-1.5,3.6-1.5h4.8c0.5,0,0.8,0.1,1.1,0.4
				c0.3,0.3,0.4,0.6,0.4,1.1v38.7c0,0.4-0.1,0.7-0.4,1c-0.2,0.3-0.6,0.5-1.1,0.5h-8.5c-0.4,0-0.8-0.1-1.1-0.4
				C189,67.6,188.8,67.2,188.8,66.8L188.8,66.8z"/>
			<path id="path41863" class="st5" d="M229.3,46.5c0.7,0,1.4,0.1,2,0.4c0.6,0.3,1.2,0.6,1.7,1c0.5,0.4,1,0.7,1.3,1.1
				c0.4,0.4,0.6,0.6,0.8,0.8l12.5,16.6c0.2,0.1,0.2,0.4,0.2,0.7c0,0.3-0.1,0.6-0.4,0.8c-0.3,0.2-0.6,0.4-1,0.4h-9.3
				c-1,0-1.8-0.4-2.4-1.1c-1.9-2.4-3.6-4.6-5.1-6.6c-0.9-1.2-1.7-2.1-2.2-2.8c-0.6-0.7-1.1-1.4-1.6-2c-0.5-0.6-0.9-1.2-1.3-1.6
				c-0.3-0.4-0.5-0.7-0.6-0.8c-0.2-0.1-0.3-0.1-0.3-0.1c-0.2,0-0.3,0.1-0.3,0.4v13.3c0,0.4-0.1,0.8-0.4,1.1
				c-0.3,0.2-0.6,0.4-1.1,0.4h-7.9c-0.4,0-0.8-0.1-1.1-0.4c-0.3-0.3-0.4-0.6-0.4-1.1v-35c0-1.3,0.5-2.5,1.4-3.5
				c1-1.1,2.2-1.6,3.7-1.6h4.3c0.4,0,0.8,0.1,1.1,0.4c0.3,0.3,0.4,0.6,0.4,1.1v12.1c0,0.2,0.1,0.3,0.3,0.3c0.1,0,0.2,0,0.3-0.1
				l9.9-12.6c0.5-0.8,1.3-1.1,2.3-1.1h9.1c0.3,0,0.6,0.1,0.9,0.4c0.2,0.2,0.4,0.5,0.4,0.8c0,0.4-0.1,0.6-0.2,0.7
				c-2,2.7-3.9,5.1-5.5,7.2c-1,1.3-1.8,2.3-2.3,3c-0.6,0.8-1.1,1.5-1.6,2.1c-0.5,0.6-0.9,1.2-1.3,1.6c-0.3,0.4-0.5,0.6-0.5,0.7
				c-0.1,0.1-0.3,0.4-0.6,0.8c-0.3,0.4-0.7,0.7-1.3,1.1c-0.5,0.4-1.1,0.8-1.9,1.1C230.9,46.4,230.1,46.5,229.3,46.5L229.3,46.5z"/>
			<path id="path41865" class="st6" d="M256.7,66.8v-35c0-1.4,0.5-2.6,1.5-3.6c1-1,2.2-1.6,3.7-1.6h2c0.4,0,1,0.1,1.6,0.3
				c0.6,0.2,1.2,0.7,1.9,1.6c2.4,3.7,4.5,7,6.3,9.9c1.2,1.8,2.1,3.2,2.7,4.3c0.7,1,1.3,2,1.9,2.9c0.6,0.9,1.1,1.6,1.5,2.3
				c0.4,0.6,0.6,1,0.7,1.1c0,0.1,0.1,0.1,0.2,0.1c0.2,0,0.3-0.1,0.3-0.3v-17c0-1.6,0.5-2.8,1.6-3.8c1.1-1,2.3-1.4,3.6-1.4h3.8
				c0.4,0,0.8,0.1,1.1,0.4c0.3,0.4,0.4,0.7,0.4,1.1v38.5c0,0.4-0.1,0.7-0.4,1.1c-0.3,0.3-0.7,0.5-1.1,0.5h-6.8c-0.9,0-1.6-0.4-2-1.1
				c-2.4-3.7-4.5-7-6.5-9.9c-1.2-1.8-2.1-3.1-2.7-4.2c-0.7-1.1-1.3-2.1-1.9-2.9c-0.6-0.9-1.1-1.7-1.5-2.3c-0.4-0.6-0.6-1-0.7-1.1
				c-0.1-0.1-0.2-0.2-0.3-0.2c-0.2,0-0.3,0.1-0.3,0.3v19.9c0,0.4-0.2,0.8-0.5,1.1c-0.3,0.3-0.7,0.4-1.1,0.4h-7.6
				c-0.4,0-0.7-0.2-1-0.5C256.9,67.5,256.7,67.1,256.7,66.8z"/>
			<path id="path41867" class="st7" d="M303.9,66.8v-35c0-1.5,0.5-2.7,1.6-3.7c1-1,2.3-1.5,3.6-1.5h4.8c0.5,0,0.8,0.1,1.1,0.4
				c0.3,0.3,0.4,0.6,0.4,1.1v38.7c0,0.4-0.1,0.7-0.4,1c-0.2,0.3-0.6,0.5-1.1,0.5h-8.5c-0.4,0-0.8-0.1-1.1-0.4
				C304,67.6,303.9,67.2,303.9,66.8z"/>
			<path id="path41869" class="st8" d="M361.6,55.8c0,2.4-0.6,4.5-1.7,6.2c-1.1,1.7-2.5,3-4.3,4.1c-1.8,1-3.7,1.8-5.9,2.3
				c-2.2,0.4-4.2,0.7-6.3,0.7c-2,0-4-0.2-6.1-0.6c-2.1-0.4-4-1.1-5.7-2c-1.8-1-3.2-2.2-4.4-3.7c-1.2-1.6-1.8-3.5-1.9-5.7
				c0-0.4,0.1-0.7,0.4-0.9c0.3-0.2,0.6-0.4,1-0.4h7.9c0.2,0,0.4,0,0.6,0.1c0.2,0,0.4,0.1,0.5,0.2c0.3,0.2,0.6,0.4,1,0.8
				c0.6,1.3,1.6,2.2,2.8,2.6c1.3,0.4,2.6,0.7,3.9,0.7c0.6,0,1.3,0,2-0.1c0.8-0.1,1.5-0.2,2.2-0.5c0.7-0.3,1.3-0.7,1.7-1.1
				c0.5-0.5,0.7-1.2,0.7-2c0-1.1-0.4-1.9-1.2-2.3c-0.8-0.5-1.6-0.9-2.5-1.1c-0.7-0.2-1.5-0.5-2.5-0.7c-0.9-0.2-2-0.5-3.2-0.7
				c-1.8-0.4-3.6-0.8-5.3-1.4c-1.7-0.6-3.2-1.4-4.6-2.3c-1.3-1-2.4-2.2-3.2-3.6c-0.8-1.5-1.2-3.3-1.2-5.4c0-2.6,0.7-4.9,2.2-6.8
				c1.5-1.9,3.4-3.4,5.7-4.4c2.5-1,5.5-1.6,8.8-1.6c1.3,0,2.7,0.1,4.1,0.4c1.4,0.2,2.8,0.6,4.1,1.1c1.4,0.5,2.6,1.1,3.8,2
				c1.2,0.8,2.2,1.8,3,2.9c1.4,1.8,2.1,3.5,2.2,5.3c0,0.3-0.1,0.6-0.4,0.9c-0.2,0.3-0.5,0.4-0.8,0.4h-8.4c-0.8,0-1.5-0.4-2-1.1
				c-0.2-0.8-0.9-1.6-1.9-2.2c-1.1-0.6-2.3-0.8-3.7-0.8c-0.6,0-1.2,0-1.9,0.1c-0.6,0.1-1.2,0.3-1.7,0.5c-0.5,0.3-0.9,0.7-1.3,1.1
				c-0.3,0.4-0.5,1-0.5,1.7c0,1.1,0.6,2,1.8,2.7c1.2,0.6,3.4,1.3,6.7,2c1.9,0.4,3.7,0.8,5.6,1.3c1.9,0.5,3.5,1.2,5,2.1
				c1.4,0.9,2.6,2.1,3.5,3.6C361.1,51.7,361.6,53.5,361.6,55.8L361.6,55.8z"/>
			<path id="path41871" class="st9" d="M405.5,55.8c0,2.4-0.6,4.5-1.7,6.2c-1.1,1.7-2.5,3-4.3,4.1c-1.8,1-3.7,1.8-5.9,2.3
				c-2.2,0.4-4.2,0.7-6.3,0.7c-2,0-4-0.2-6.1-0.6c-2.1-0.4-4-1.1-5.7-2c-1.8-1-3.2-2.2-4.4-3.7c-1.2-1.6-1.8-3.5-1.9-5.7
				c0-0.4,0.1-0.7,0.4-0.9c0.3-0.2,0.6-0.4,1-0.4h7.9c0.2,0,0.4,0,0.6,0.1c0.2,0,0.4,0.1,0.5,0.2c0.3,0.2,0.6,0.4,1,0.8
				c0.6,1.3,1.6,2.2,2.8,2.6c1.3,0.4,2.6,0.7,3.9,0.7c0.6,0,1.3,0,2-0.1c0.8-0.1,1.5-0.2,2.2-0.5c0.7-0.3,1.3-0.7,1.7-1.1
				c0.5-0.5,0.7-1.2,0.7-2c0-1.1-0.4-1.9-1.2-2.3s-1.6-0.9-2.5-1.1c-0.7-0.2-1.5-0.5-2.5-0.7c-0.9-0.2-2-0.5-3.2-0.7
				c-1.8-0.4-3.6-0.8-5.3-1.4c-1.7-0.6-3.2-1.4-4.6-2.3c-1.3-1-2.4-2.2-3.2-3.6c-0.8-1.5-1.2-3.3-1.2-5.4c0-2.6,0.7-4.9,2.2-6.8
				c1.5-1.9,3.4-3.4,5.7-4.4c2.5-1,5.5-1.6,8.8-1.6c1.3,0,2.7,0.1,4.1,0.4c1.4,0.2,2.8,0.6,4.1,1.1c1.4,0.5,2.6,1.1,3.8,2
				c1.2,0.8,2.2,1.8,3,2.9c1.4,1.8,2.1,3.5,2.2,5.3c0,0.3-0.1,0.6-0.4,0.9c-0.2,0.3-0.5,0.4-0.8,0.4h-8.4c-0.8,0-1.5-0.4-2-1.1
				c-0.2-0.8-0.9-1.6-1.9-2.2c-1.1-0.6-2.3-0.8-3.7-0.8c-0.6,0-1.2,0-1.9,0.1c-0.6,0.1-1.2,0.3-1.7,0.5c-0.5,0.3-0.9,0.7-1.3,1.1
				c-0.3,0.4-0.5,1-0.5,1.7c0,1.1,0.6,2,1.8,2.7c1.2,0.6,3.4,1.3,6.7,2c1.9,0.4,3.7,0.8,5.6,1.3c1.9,0.5,3.5,1.2,5,2.1
				c1.4,0.9,2.6,2.1,3.5,3.6C405.1,51.7,405.5,53.5,405.5,55.8L405.5,55.8z"/>
			<path id="path41873" class="st10" d="M415.6,66.8v-35c0-1.5,0.5-2.7,1.6-3.7c1-1,2.3-1.5,3.6-1.5h24.4c0.4,0,0.8,0.2,1.1,0.5
				c0.3,0.3,0.5,0.6,0.5,1.1v5.9c0,0.4-0.1,0.8-0.4,1c-0.3,0.3-0.7,0.4-1.1,0.4h-22.1c1,0,1.7,0.3,2.3,1c0.6,0.7,1,1.4,1,2.2v2.5
				c0,0.4,0.1,0.9,0.4,1.3c0.3,0.4,0.8,0.6,1.4,0.6h13c0.4,0,0.8,0.2,1.1,0.5c0.3,0.3,0.5,0.6,0.5,1.1v5.4c0,0.4-0.2,0.8-0.5,1.1
				c-0.3,0.3-0.6,0.4-1.1,0.4h-18.1c0.9,0,1.7,0.3,2.3,1c0.6,0.6,1,1.4,1,2.2v2.8c0,0.4,0.2,0.9,0.5,1.3c0.3,0.4,0.8,0.6,1.3,0.6
				h17.4c1,0,1.6,0.5,1.6,1.6v5.9c0,0.5-0.2,0.9-0.5,1.1c-0.3,0.2-0.6,0.4-1.1,0.4h-28.6c-0.4,0-0.8-0.1-1.1-0.4
				C415.7,67.6,415.6,67.2,415.6,66.8L415.6,66.8z"/>
			<path id="path41875" class="st11" d="M458.2,66.8v-35c0-1.4,0.5-2.6,1.5-3.6c1-1,2.2-1.6,3.7-1.6h2c0.4,0,1,0.1,1.6,0.3
				c0.6,0.2,1.2,0.7,1.9,1.6c2.4,3.7,4.5,7,6.3,9.9c1.2,1.8,2.1,3.2,2.7,4.3c0.7,1,1.3,2,1.9,2.9c0.6,0.9,1.1,1.6,1.5,2.3
				c0.4,0.6,0.6,1,0.7,1.1c0,0.1,0.1,0.1,0.2,0.1c0.2,0,0.3-0.1,0.3-0.3v-17c0-1.6,0.5-2.8,1.6-3.8c1.1-1,2.3-1.4,3.6-1.4h3.8
				c0.4,0,0.8,0.1,1.1,0.4c0.3,0.4,0.4,0.7,0.4,1.1v38.5c0,0.4-0.1,0.7-0.4,1.1c-0.3,0.3-0.7,0.5-1.1,0.5h-6.8c-0.9,0-1.6-0.4-2-1.1
				c-2.4-3.7-4.5-7-6.5-9.9c-1.2-1.8-2.1-3.1-2.7-4.2c-0.7-1.1-1.3-2.1-1.9-2.9c-0.6-0.9-1.1-1.7-1.5-2.3c-0.4-0.6-0.6-1-0.7-1.1
				c-0.1-0.1-0.2-0.2-0.3-0.2c-0.2,0-0.3,0.1-0.3,0.3v19.9c0,0.4-0.2,0.8-0.5,1.1c-0.3,0.3-0.7,0.4-1.1,0.4h-7.6
				c-0.4,0-0.7-0.2-1-0.5C458.3,67.5,458.2,67.1,458.2,66.8z"/>
		</g>
		<g>
			<g>
				<path d="M-133.9,96.1c-9,0-17.5,0-26,0c-4.7,0-5.8-1-5.8-5.6c0-27.4,0-54.7,0-82.1c0-4.7,1-5.7,5.7-5.7c36.1,0,72.2,0,108.3,0
					c4.7,0,5.7,1,5.7,5.7c0,27.4,0,54.7,0,82.1c0,4.6-1.1,5.7-5.7,5.7c-9.7,0-19.5,0-29.6,0c1.4,2.9,3.1,4.1,6.1,4.1
					c10.2-0.1,20.5-0.1,30.7-0.1c5,0,6,1,6,5.8c0,8.7,0,17.5,0,26.2c0,3.9-1.2,5.2-5.1,5.2c-41.5,0-83,0-124.4,0
					c-3.9,0-5.1-1.2-5.2-5.1c0-9,0-18,0-27c0-3.9,1.2-5.1,5.2-5.1c9.1,0,18.2-0.1,27.4,0.1C-137.7,100.3-135.7,99.2-133.9,96.1z
					 M-45.9,107.6c-40.2,0-80,0-119.9,0c0,7.6,0,14.9,0,22.2c40.1,0,80,0,119.9,0C-45.9,122.3-45.9,115.1-45.9,107.6z M-53.4,10.1
					c-35.2,0-70,0-104.9,0c0,26.3,0,52.4,0,78.4c35.1,0,70,0,104.9,0C-53.4,62.3-53.4,36.3-53.4,10.1z M-89,100
					c-1.7-3-3.7-4-6.7-3.9c-8.1,0.2-16.2,0.2-24.4,0c-3-0.1-4.8,1.2-6.3,3.9C-113.8,100-101.6,100-89,100z"/>
				<path d="M-71.7,111.4c5.7,0,11.5,0,17.2,0c2.6,0,4.7,0.9,4.6,3.6c0,2.8-2.1,3.6-4.7,3.6c-11.7,0-23.4,0-35.1,0
					c-2.6,0-4.7-0.9-4.6-3.7c0-2.8,2.1-3.6,4.7-3.6C-83.7,111.4-77.7,111.4-71.7,111.4z"/>
				<path d="M-154.7,118.5c0,1.2,0.4,2.7-0.1,3.7c-0.9,1.5-2.4,2.6-3.6,3.9c-1.2-1.2-3-2.3-3.3-3.8c-0.6-2.2-0.6-4.8,0-7
					c0.4-1.5,2.3-2.6,3.6-3.9c1.2,1.2,2.6,2.3,3.4,3.8C-154.3,116-154.7,117.4-154.7,118.5z"/>
				<path d="M-143.5,118.8c0,1.4,0.5,3-0.1,4c-0.7,1.3-2.3,3-3.5,3c-1.2,0-3.1-1.8-3.4-3.1c-0.6-2.3-0.6-5,0-7.4
					c0.4-1.5,2.3-2.7,3.5-4c1.2,1.3,2.6,2.5,3.5,4.1C-143.1,116.3-143.5,117.7-143.5,118.8C-143.5,118.8-143.5,118.8-143.5,118.8z"
					/>
				<path d="M-132.3,118.8c0,1.4,0.5,3-0.1,4c-0.7,1.3-2.5,3.2-3.4,3c-1.4-0.3-3.1-2-3.5-3.4c-0.6-2.2-0.6-4.8,0-7
					c0.4-1.5,2.3-2.7,3.5-4c1.2,1.3,2.6,2.5,3.5,4C-131.8,116.3-132.2,117.6-132.3,118.8C-132.2,118.8-132.3,118.8-132.3,118.8z"/>
				<path d="M-105.8,84.9c-14.2,0-28.5,0-42.7,0c-4.9,0-5.9-1-5.9-5.9c0-19.7,0-39.5,0-59.2c0-5,0.9-5.9,5.9-5.9
					c28.5,0,56.9,0,85.4,0c4.9,0,5.9,1,5.9,5.9c0,19.7,0,39.5,0,59.2c0,4.9-1,5.9-5.9,5.9C-77.4,84.9-91.6,84.9-105.8,84.9z
					 M-64.6,21.4c-27.7,0-55,0-82.4,0c0,18.8,0,37.3,0,56c27.6,0,55,0,82.4,0C-64.6,58.5-64.6,40.1-64.6,21.4z"/>
			</g>
		</g>
	</g>
</g>
</svg>
